<svg width="210" height="56" viewBox="0 0 210 56" fill="none" xmlns="http://www.w3.org/2000/svg">
<path d="M14.544 24.09C13.848 24.09 13.062 24.03 12.186 23.91C11.706 23.85 11.376 23.724 11.196 23.532C11.016 23.34 10.938 23.028 10.962 22.596C11.046 21.408 11.244 19.944 11.556 18.204C11.868 16.452 12.246 14.766 12.69 13.146C12.774 12.846 12.942 12.636 13.194 12.516C13.446 12.396 13.776 12.336 14.184 12.336C14.916 12.336 15.282 12.54 15.282 12.948C15.282 13.116 15.246 13.308 15.174 13.524C14.862 14.484 14.55 15.774 14.238 17.394C13.926 19.002 13.704 20.538 13.572 22.002C13.932 22.038 14.34 22.056 14.796 22.056C16.896 22.056 18.462 21.42 19.494 20.148C20.538 18.876 21.06 17.178 21.06 15.054C21.06 13.626 20.652 12.522 19.836 11.742C19.02 10.962 17.868 10.572 16.38 10.572C15.42 10.572 14.466 10.722 13.518 11.022C12.582 11.322 11.736 11.718 10.98 12.21C10.824 12.318 10.656 12.372 10.476 12.372C10.272 12.372 10.11 12.288 9.99 12.12C9.87 11.94 9.81 11.724 9.81 11.472C9.81 11.184 9.858 10.95 9.954 10.77C10.05 10.578 10.212 10.404 10.44 10.248C11.268 9.684 12.24 9.258 13.356 8.97C14.472 8.67 15.546 8.52 16.578 8.52C18.042 8.52 19.308 8.778 20.376 9.294C21.444 9.798 22.266 10.542 22.842 11.526C23.418 12.51 23.706 13.698 23.706 15.09C23.706 16.902 23.346 18.486 22.626 19.842C21.906 21.186 20.856 22.23 19.476 22.974C18.096 23.718 16.452 24.09 14.544 24.09ZM27.5929 24.09C26.8849 24.09 26.2789 23.916 25.7749 23.568C25.2829 23.208 24.9109 22.74 24.6589 22.164C24.4069 21.588 24.2809 20.97 24.2809 20.31C24.2809 19.398 24.4489 18.588 24.7849 17.88C25.1329 17.16 25.6009 16.602 26.1889 16.206C26.7769 15.798 27.4369 15.594 28.1689 15.594C28.8769 15.594 29.4829 15.774 29.9869 16.134C30.4909 16.482 30.8689 16.944 31.1209 17.52C31.3729 18.096 31.4989 18.714 31.4989 19.374C31.4989 20.286 31.3249 21.102 30.9769 21.822C30.6289 22.53 30.1549 23.088 29.5549 23.496C28.9669 23.892 28.3129 24.09 27.5929 24.09ZM27.7909 22.146C28.1989 22.146 28.5409 21.924 28.8169 21.48C29.1049 21.036 29.2489 20.388 29.2489 19.536C29.2489 18.876 29.1289 18.378 28.8889 18.042C28.6489 17.706 28.3609 17.538 28.0249 17.538C27.5929 17.538 27.2329 17.76 26.9449 18.204C26.6689 18.636 26.5309 19.284 26.5309 20.148C26.5309 20.832 26.6509 21.336 26.8909 21.66C27.1309 21.984 27.4309 22.146 27.7909 22.146ZM45.9668 20.022C46.1228 20.022 46.2428 20.1 46.3268 20.256C46.4228 20.4 46.4708 20.586 46.4708 20.814C46.4708 21.09 46.4288 21.306 46.3448 21.462C46.2608 21.618 46.1288 21.756 45.9488 21.876L42.4928 24.198C42.0368 26.682 41.4368 28.632 40.6928 30.048C39.9608 31.476 39.0248 32.19 37.8848 32.19C37.2728 32.19 36.7748 31.998 36.3908 31.614C36.0068 31.242 35.8148 30.75 35.8148 30.138C35.8148 29.574 35.9408 28.998 36.1928 28.41C36.4568 27.822 36.9368 27.144 37.6328 26.376C38.3408 25.62 39.3368 24.75 40.6208 23.766L40.6748 23.352C40.7588 22.908 40.8548 22.272 40.9628 21.444C40.7228 22.308 40.3868 22.968 39.9548 23.424C39.5228 23.868 39.0668 24.09 38.5868 24.09C38.0468 24.09 37.6028 23.844 37.2548 23.352C36.9188 22.848 36.7508 22.224 36.7508 21.48C36.7508 20.58 36.8108 19.758 36.9308 19.014C37.0508 18.258 37.2488 17.46 37.5248 16.62C37.6448 16.26 37.8128 16.002 38.0288 15.846C38.2448 15.69 38.5868 15.612 39.0548 15.612C39.3188 15.612 39.4988 15.654 39.5948 15.738C39.7028 15.822 39.7568 15.948 39.7568 16.116C39.7568 16.212 39.6908 16.536 39.5588 17.088C39.4388 17.532 39.3428 17.934 39.2708 18.294C39.1748 18.786 39.0908 19.26 39.0188 19.716C38.9468 20.16 38.9108 20.526 38.9108 20.814C38.9108 21.27 39.0368 21.498 39.2888 21.498C39.4688 21.498 39.6908 21.318 39.9548 20.958C40.2308 20.598 40.5188 20.052 40.8188 19.32C41.1308 18.588 41.4308 17.688 41.7188 16.62C41.8148 16.26 41.9588 16.002 42.1508 15.846C42.3548 15.69 42.6548 15.612 43.0508 15.612C43.3268 15.612 43.5188 15.648 43.6268 15.72C43.7348 15.792 43.7888 15.912 43.7888 16.08C43.7888 16.38 43.6328 17.412 43.3208 19.176L42.8528 22.074C43.7768 21.378 44.6768 20.742 45.5528 20.166C45.7088 20.07 45.8468 20.022 45.9668 20.022ZM38.0828 30.444C38.3828 30.444 38.7188 30.096 39.0908 29.4C39.4628 28.704 39.8348 27.546 40.2068 25.926C39.2828 26.706 38.6108 27.414 38.1908 28.05C37.7828 28.698 37.5788 29.262 37.5788 29.742C37.5788 29.946 37.6148 30.114 37.6868 30.246C37.7708 30.378 37.9028 30.444 38.0828 30.444ZM54.1841 18.474C54.3401 18.474 54.4601 18.552 54.5441 18.708C54.6281 18.864 54.6701 19.062 54.6701 19.302C54.6701 19.878 54.4961 20.22 54.1481 20.328C53.4281 20.58 52.6361 20.724 51.7721 20.76C51.5441 21.768 51.0941 22.578 50.4221 23.19C49.7501 23.79 48.9881 24.09 48.1361 24.09C47.4161 24.09 46.7981 23.916 46.2821 23.568C45.7781 23.22 45.3941 22.758 45.1301 22.182C44.8661 21.606 44.7341 20.982 44.7341 20.31C44.7341 19.398 44.9081 18.588 45.2561 17.88C45.6041 17.16 46.0841 16.602 46.6961 16.206C47.3081 15.798 47.9861 15.594 48.7301 15.594C49.6421 15.594 50.3741 15.912 50.9261 16.548C51.4901 17.172 51.8201 17.946 51.9161 18.87C52.4801 18.834 53.1521 18.714 53.9321 18.51C54.0281 18.486 54.1121 18.474 54.1841 18.474ZM48.2801 22.182C48.6641 22.182 48.9941 22.026 49.2701 21.714C49.5581 21.402 49.7501 20.952 49.8461 20.364C49.4741 20.112 49.1861 19.782 48.9821 19.374C48.7901 18.966 48.6941 18.534 48.6941 18.078C48.6941 17.886 48.7121 17.694 48.7481 17.502H48.6581C48.1781 17.502 47.7761 17.736 47.4521 18.204C47.1401 18.66 46.9841 19.308 46.9841 20.148C46.9841 20.808 47.1101 21.312 47.3621 21.66C47.6261 22.008 47.9321 22.182 48.2801 22.182ZM54.6372 24.09C54.0732 24.09 53.6172 23.862 53.2692 23.406C52.9332 22.938 52.7652 22.296 52.7652 21.48C52.7652 20.58 52.8252 19.758 52.9452 19.014C53.0652 18.258 53.2632 17.46 53.5392 16.62C53.6592 16.26 53.8272 16.002 54.0432 15.846C54.2592 15.69 54.6012 15.612 55.0692 15.612C55.3332 15.612 55.5132 15.654 55.6092 15.738C55.7172 15.822 55.7712 15.948 55.7712 16.116C55.7712 16.212 55.7052 16.536 55.5732 17.088C55.4532 17.532 55.3572 17.934 55.2852 18.294C55.0452 19.554 54.9252 20.394 54.9252 20.814C54.9252 21.066 54.9552 21.246 55.0152 21.354C55.0752 21.45 55.1712 21.498 55.3032 21.498C55.4832 21.498 55.7112 21.318 55.9872 20.958C56.2632 20.586 56.5512 20.034 56.8512 19.302C57.1632 18.558 57.4572 17.664 57.7332 16.62C57.8292 16.26 57.9732 16.002 58.1652 15.846C58.3692 15.69 58.6692 15.612 59.0652 15.612C59.3292 15.612 59.5152 15.684 59.6232 15.828C59.7432 15.96 59.8032 16.164 59.8032 16.44C59.8032 16.74 59.7792 17.076 59.7312 17.448C59.6832 17.808 59.6292 18.18 59.5692 18.564C59.4492 19.332 59.3532 20.034 59.2812 20.67C59.2092 21.294 59.1732 22.008 59.1732 22.812C59.1732 23.268 59.0772 23.598 58.8852 23.802C58.7052 23.994 58.4052 24.09 57.9852 24.09C57.5412 24.09 57.2292 23.976 57.0492 23.748C56.8812 23.508 56.7972 23.052 56.7972 22.38C56.7972 22.248 56.8092 21.954 56.8332 21.498C56.6292 22.338 56.3232 22.98 55.9152 23.424C55.5192 23.868 55.0932 24.09 54.6372 24.09ZM68.4361 24.486C67.8121 24.486 67.3321 24.342 66.9961 24.054C66.6721 23.766 66.5101 23.442 66.5101 23.082C66.5101 22.77 66.6241 22.5 66.8521 22.272C67.0801 22.044 67.4161 21.93 67.8601 21.93C68.0161 21.93 68.1961 21.948 68.4001 21.984C68.6161 22.008 68.7781 22.026 68.8861 22.038C68.8741 21.726 68.8021 21.432 68.6701 21.156C68.5501 20.88 68.3941 20.616 68.2021 20.364C68.0101 20.1 67.8301 19.872 67.6621 19.68C67.2901 20.388 66.9181 20.976 66.5461 21.444C66.1861 21.912 65.7901 22.356 65.3581 22.776C65.1421 22.992 64.9141 23.1 64.6741 23.1C64.4821 23.1 64.3261 23.034 64.2061 22.902C64.0861 22.758 64.0261 22.584 64.0261 22.38C64.0261 22.14 64.1101 21.918 64.2781 21.714L64.5121 21.426C65.1721 20.61 65.6701 19.938 66.0061 19.41C66.2101 19.062 66.4501 18.6 66.7261 18.024C67.0021 17.436 67.2721 16.83 67.5361 16.206C67.7641 15.678 68.2381 15.414 68.9581 15.414C69.2941 15.414 69.5281 15.444 69.6601 15.504C69.7921 15.564 69.8581 15.66 69.8581 15.792C69.8581 15.864 69.8341 15.978 69.7861 16.134C69.7381 16.29 69.6721 16.446 69.5881 16.602C69.3721 17.034 69.2641 17.4 69.2641 17.7C69.2641 17.88 69.3241 18.078 69.4441 18.294C69.5761 18.51 69.7741 18.78 70.0381 19.104C70.4221 19.608 70.7101 20.04 70.9021 20.4C71.1061 20.748 71.2081 21.132 71.2081 21.552C71.2081 21.672 71.1961 21.84 71.1721 22.056C71.7601 21.828 72.4501 21.222 73.2421 20.238C73.3861 20.07 73.5481 19.986 73.7281 19.986C73.8841 19.986 74.0041 20.058 74.0881 20.202C74.1841 20.346 74.2321 20.544 74.2321 20.796C74.2321 21.252 74.1181 21.624 73.8901 21.912C73.2901 22.656 72.7141 23.166 72.1621 23.442C71.6221 23.706 70.9501 23.85 70.1461 23.874C69.6661 24.282 69.0961 24.486 68.4361 24.486ZM80.4378 19.986C80.5938 19.986 80.7138 20.058 80.7978 20.202C80.8938 20.346 80.9418 20.544 80.9418 20.796C80.9418 21.276 80.8278 21.648 80.5998 21.912C80.1558 22.452 79.5258 22.95 78.7098 23.406C77.9058 23.862 77.0418 24.09 76.1178 24.09C74.8578 24.09 73.8798 23.748 73.1838 23.064C72.4878 22.38 72.1398 21.444 72.1398 20.256C72.1398 19.428 72.3138 18.66 72.6618 17.952C73.0098 17.232 73.4898 16.662 74.1018 16.242C74.7258 15.822 75.4278 15.612 76.2078 15.612C76.9038 15.612 77.4618 15.822 77.8818 16.242C78.3018 16.65 78.5118 17.208 78.5118 17.916C78.5118 18.744 78.2118 19.458 77.6118 20.058C77.0238 20.646 76.0218 21.114 74.6058 21.462C74.9058 22.014 75.4758 22.29 76.3158 22.29C76.8558 22.29 77.4678 22.104 78.1518 21.732C78.8478 21.348 79.4478 20.85 79.9518 20.238C80.0958 20.07 80.2578 19.986 80.4378 19.986ZM75.9018 17.376C75.4578 17.376 75.0798 17.634 74.7678 18.15C74.4678 18.666 74.3178 19.29 74.3178 20.022V20.058C75.0258 19.89 75.5838 19.638 75.9918 19.302C76.3998 18.966 76.6038 18.576 76.6038 18.132C76.6038 17.904 76.5378 17.724 76.4058 17.592C76.2858 17.448 76.1178 17.376 75.9018 17.376ZM85.9382 19.986C86.0942 19.986 86.2142 20.058 86.2982 20.202C86.3942 20.346 86.4422 20.544 86.4422 20.796C86.4422 21.276 86.3282 21.648 86.1002 21.912C85.5842 22.548 85.0202 23.07 84.4082 23.478C83.8082 23.886 83.1242 24.09 82.3562 24.09C81.3002 24.09 80.5142 23.61 79.9982 22.65C79.4942 21.69 79.2422 20.448 79.2422 18.924C79.2422 17.46 79.4282 15.792 79.8002 13.92C80.1842 12.048 80.7422 10.44 81.4742 9.096C82.2182 7.752 83.1002 7.08 84.1202 7.08C84.6962 7.08 85.1462 7.35 85.4702 7.89C85.8062 8.418 85.9742 9.18 85.9742 10.176C85.9742 11.604 85.5782 13.26 84.7862 15.144C83.9942 17.028 82.9202 18.894 81.5642 20.742C81.6482 21.234 81.7862 21.588 81.9782 21.804C82.1702 22.008 82.4222 22.11 82.7342 22.11C83.2262 22.11 83.6582 21.972 84.0302 21.696C84.4022 21.408 84.8762 20.922 85.4522 20.238C85.5962 20.07 85.7582 19.986 85.9382 19.986ZM83.7242 8.862C83.4482 8.862 83.1362 9.36 82.7882 10.356C82.4402 11.352 82.1342 12.588 81.8702 14.064C81.6062 15.54 81.4622 16.956 81.4382 18.312C82.2902 16.908 82.9682 15.504 83.4722 14.1C83.9762 12.684 84.2282 11.394 84.2282 10.23C84.2282 9.318 84.0602 8.862 83.7242 8.862ZM89.8293 21.462C89.9613 21.342 90.0933 21.282 90.2253 21.282C90.3693 21.282 90.4833 21.366 90.5673 21.534C90.6633 21.69 90.7113 21.882 90.7113 22.11C90.7113 22.614 90.5313 23.016 90.1713 23.316C89.5473 23.832 88.8393 24.09 88.0473 24.09C86.9073 24.09 86.0733 23.616 85.5453 22.668C85.0173 21.708 84.7533 20.46 84.7533 18.924C84.7533 17.46 84.9393 15.792 85.3113 13.92C85.6953 12.048 86.2533 10.44 86.9853 9.096C87.7293 7.752 88.6113 7.08 89.6313 7.08C90.2073 7.08 90.6573 7.35 90.9813 7.89C91.3173 8.418 91.4853 9.18 91.4853 10.176C91.4853 11.604 91.0893 13.26 90.2973 15.144C89.5173 17.028 88.4493 18.888 87.0933 20.724C87.1773 21.216 87.3273 21.57 87.5433 21.786C87.7593 22.002 88.0533 22.11 88.4253 22.11C88.6293 22.11 88.8573 22.05 89.1093 21.93C89.3733 21.81 89.6133 21.654 89.8293 21.462ZM89.2353 8.862C88.9593 8.862 88.6473 9.36 88.2993 10.356C87.9513 11.352 87.6453 12.588 87.3813 14.064C87.1173 15.54 86.9733 16.956 86.9493 18.312C87.8013 16.908 88.4793 15.504 88.9833 14.1C89.4873 12.684 89.7393 11.394 89.7393 10.23C89.7393 9.318 89.5713 8.862 89.2353 8.862ZM104.91 19.986C105.066 19.986 105.186 20.058 105.27 20.202C105.366 20.346 105.414 20.544 105.414 20.796C105.414 21.276 105.3 21.648 105.072 21.912C104.556 22.548 103.998 23.07 103.398 23.478C102.81 23.886 102.138 24.09 101.382 24.09C100.746 24.09 100.23 23.862 99.8339 23.406C99.1499 23.85 98.4359 24.078 97.6919 24.09C97.5359 26.406 97.1819 28.338 96.6299 29.886C96.0779 31.446 95.2679 32.226 94.1999 32.226C93.5519 32.226 93.0719 31.992 92.7599 31.524C92.4479 31.056 92.2919 30.408 92.2919 29.58C92.2919 28.404 92.5619 27.03 93.1019 25.458C93.6419 23.898 94.4759 22.176 95.6039 20.292C95.6039 18.54 95.5919 17.322 95.5679 16.638C95.5559 16.29 95.6939 16.014 95.9819 15.81C96.2699 15.606 96.6299 15.504 97.0619 15.504C97.3139 15.504 97.4939 15.558 97.6019 15.666C97.7219 15.762 97.7879 15.96 97.7999 16.26C97.7999 16.56 97.8059 16.782 97.8179 16.926C98.2019 16.446 98.5799 16.104 98.9519 15.9C99.3239 15.684 99.7199 15.576 100.14 15.576C100.812 15.576 101.358 15.846 101.778 16.386C102.21 16.926 102.426 17.634 102.426 18.51C102.426 19.146 102.324 19.764 102.12 20.364C101.916 20.964 101.634 21.51 101.274 22.002C101.526 22.074 101.736 22.11 101.904 22.11C102.3 22.11 102.678 21.966 103.038 21.678C103.398 21.39 103.86 20.91 104.424 20.238C104.568 20.07 104.73 19.986 104.91 19.986ZM97.7819 22.362C98.2139 22.266 98.6099 22.032 98.9699 21.66C99.3419 21.276 99.6359 20.808 99.8519 20.256C100.068 19.692 100.176 19.104 100.176 18.492C100.176 18.132 100.104 17.862 99.9599 17.682C99.8159 17.49 99.6239 17.394 99.3839 17.394C98.9519 17.394 98.4299 17.85 97.8179 18.762C97.8059 19.29 97.7999 20.064 97.7999 21.084C97.7999 21.636 97.7939 22.062 97.7819 22.362ZM94.3439 30.462C94.6679 30.462 94.9379 29.754 95.1539 28.338C95.3699 26.934 95.5079 25.182 95.5679 23.082C95.0519 24.282 94.6439 25.428 94.3439 26.52C94.0439 27.612 93.8939 28.53 93.8939 29.274C93.8939 29.658 93.9419 29.952 94.0379 30.156C94.1219 30.36 94.2239 30.462 94.3439 30.462ZM104.882 24.09C104.426 24.09 104.102 23.85 103.91 23.37C103.73 22.89 103.64 22.122 103.64 21.066C103.64 19.506 103.862 18.024 104.306 16.62C104.414 16.272 104.588 16.02 104.828 15.864C105.08 15.696 105.428 15.612 105.872 15.612C106.112 15.612 106.28 15.642 106.376 15.702C106.472 15.762 106.52 15.876 106.52 16.044C106.52 16.236 106.43 16.668 106.25 17.34C106.13 17.82 106.034 18.24 105.962 18.6C105.89 18.96 105.83 19.404 105.782 19.932C106.178 18.9 106.622 18.06 107.114 17.412C107.606 16.764 108.086 16.302 108.554 16.026C109.034 15.75 109.472 15.612 109.868 15.612C110.648 15.612 111.038 16.002 111.038 16.782C111.038 16.938 110.984 17.316 110.876 17.916C110.78 18.396 110.732 18.696 110.732 18.816C110.732 19.236 110.882 19.446 111.182 19.446C111.518 19.446 111.95 19.182 112.478 18.654C112.634 18.498 112.796 18.42 112.964 18.42C113.12 18.42 113.24 18.492 113.324 18.636C113.42 18.768 113.468 18.948 113.468 19.176C113.468 19.62 113.348 19.968 113.108 20.22C112.772 20.568 112.376 20.868 111.92 21.12C111.476 21.36 111.002 21.48 110.498 21.48C109.862 21.48 109.376 21.318 109.04 20.994C108.716 20.67 108.554 20.232 108.554 19.68C108.554 19.5 108.572 19.32 108.608 19.14C108.632 18.9 108.644 18.738 108.644 18.654C108.644 18.462 108.578 18.366 108.446 18.366C108.266 18.366 108.026 18.57 107.726 18.978C107.438 19.374 107.15 19.902 106.862 20.562C106.574 21.222 106.34 21.918 106.16 22.65C106.028 23.214 105.872 23.598 105.692 23.802C105.524 23.994 105.254 24.09 104.882 24.09ZM120.615 18.474C120.771 18.474 120.891 18.552 120.975 18.708C121.059 18.864 121.101 19.062 121.101 19.302C121.101 19.878 120.927 20.22 120.579 20.328C119.859 20.58 119.067 20.724 118.203 20.76C117.975 21.768 117.525 22.578 116.853 23.19C116.181 23.79 115.419 24.09 114.567 24.09C113.847 24.09 113.229 23.916 112.713 23.568C112.209 23.22 111.825 22.758 111.561 22.182C111.297 21.606 111.165 20.982 111.165 20.31C111.165 19.398 111.339 18.588 111.687 17.88C112.035 17.16 112.515 16.602 113.127 16.206C113.739 15.798 114.417 15.594 115.161 15.594C116.073 15.594 116.805 15.912 117.357 16.548C117.921 17.172 118.251 17.946 118.347 18.87C118.911 18.834 119.583 18.714 120.363 18.51C120.459 18.486 120.543 18.474 120.615 18.474ZM114.711 22.182C115.095 22.182 115.425 22.026 115.701 21.714C115.989 21.402 116.181 20.952 116.277 20.364C115.905 20.112 115.617 19.782 115.413 19.374C115.221 18.966 115.125 18.534 115.125 18.078C115.125 17.886 115.143 17.694 115.179 17.502H115.089C114.609 17.502 114.207 17.736 113.883 18.204C113.571 18.66 113.415 19.308 113.415 20.148C113.415 20.808 113.541 21.312 113.793 21.66C114.057 22.008 114.363 22.182 114.711 22.182ZM129.42 19.986C129.576 19.986 129.696 20.058 129.78 20.202C129.876 20.346 129.924 20.544 129.924 20.796C129.924 21.276 129.81 21.648 129.582 21.912C129.09 22.512 128.55 23.028 127.962 23.46C127.374 23.88 126.792 24.09 126.216 24.09C125.304 24.09 124.608 23.556 124.128 22.488C123.624 23.124 123.18 23.55 122.796 23.766C122.424 23.982 121.986 24.09 121.482 24.09C120.75 24.09 120.144 23.82 119.664 23.28C119.196 22.728 118.962 22.014 118.962 21.138C118.962 20.178 119.166 19.29 119.574 18.474C119.982 17.646 120.54 16.974 121.248 16.458C121.968 15.93 122.772 15.618 123.66 15.522C123.888 13.194 124.32 11.208 124.956 9.564C125.604 7.908 126.45 7.08 127.494 7.08C128.01 7.08 128.436 7.314 128.772 7.782C129.12 8.25 129.294 8.958 129.294 9.906C129.294 11.25 128.964 12.822 128.304 14.622C127.644 16.422 126.762 18.27 125.658 20.166C125.706 20.862 125.808 21.36 125.964 21.66C126.132 21.96 126.342 22.11 126.594 22.11C126.918 22.11 127.248 21.966 127.584 21.678C127.92 21.39 128.37 20.91 128.934 20.238C129.078 20.07 129.24 19.986 129.42 19.986ZM127.296 8.844C127.068 8.844 126.84 9.252 126.612 10.068C126.384 10.872 126.186 11.928 126.018 13.236C125.862 14.544 125.748 15.912 125.676 17.34C127.02 14.412 127.692 12.06 127.692 10.284C127.692 9.828 127.65 9.474 127.566 9.222C127.494 8.97 127.404 8.844 127.296 8.844ZM122.112 22.272C122.34 22.272 122.568 22.182 122.796 22.002C123.024 21.81 123.312 21.462 123.66 20.958C123.54 20.31 123.48 19.584 123.48 18.78C123.48 18.492 123.492 18.024 123.516 17.376C122.856 17.58 122.304 18.024 121.86 18.708C121.428 19.38 121.212 20.13 121.212 20.958C121.212 21.834 121.512 22.272 122.112 22.272ZM129.936 24.09C129.396 24.09 128.952 23.844 128.604 23.352C128.268 22.848 128.1 22.224 128.1 21.48C128.1 20.58 128.16 19.758 128.28 19.014C128.4 18.258 128.598 17.46 128.874 16.62C128.994 16.26 129.162 16.002 129.378 15.846C129.594 15.69 129.936 15.612 130.404 15.612C130.668 15.612 130.848 15.654 130.944 15.738C131.052 15.822 131.106 15.948 131.106 16.116C131.106 16.212 131.04 16.536 130.908 17.088C130.788 17.532 130.692 17.934 130.62 18.294C130.38 19.554 130.26 20.394 130.26 20.814C130.26 21.066 130.29 21.246 130.35 21.354C130.41 21.45 130.506 21.498 130.638 21.498C130.818 21.498 131.04 21.318 131.304 20.958C131.58 20.598 131.868 20.052 132.168 19.32C132.48 18.588 132.78 17.688 133.068 16.62C133.164 16.26 133.308 16.002 133.5 15.846C133.704 15.69 134.004 15.612 134.4 15.612C134.676 15.612 134.868 15.648 134.976 15.72C135.084 15.78 135.138 15.9 135.138 16.08C135.138 16.38 134.988 17.202 134.688 18.546C134.352 20.082 134.184 21.03 134.184 21.39C134.184 21.618 134.232 21.798 134.328 21.93C134.424 22.05 134.55 22.11 134.706 22.11C134.946 22.11 135.228 21.966 135.552 21.678C135.888 21.378 136.332 20.898 136.884 20.238C137.028 20.07 137.19 19.986 137.37 19.986C137.526 19.986 137.646 20.058 137.73 20.202C137.826 20.346 137.874 20.544 137.874 20.796C137.874 21.276 137.76 21.648 137.532 21.912C137.016 22.548 136.458 23.07 135.858 23.478C135.27 23.886 134.598 24.09 133.842 24.09C133.266 24.09 132.84 23.868 132.564 23.424C132.3 22.98 132.168 22.356 132.168 21.552C131.964 22.368 131.658 22.998 131.25 23.442C130.842 23.874 130.404 24.09 129.936 24.09ZM139.493 24.09C138.317 24.09 137.399 23.76 136.739 23.1C136.091 22.428 135.767 21.546 135.767 20.454C135.767 19.482 135.959 18.63 136.343 17.898C136.727 17.166 137.225 16.602 137.837 16.206C138.449 15.81 139.091 15.612 139.763 15.612C140.423 15.612 140.933 15.81 141.293 16.206C141.665 16.59 141.851 17.088 141.851 17.7C141.851 18.204 141.737 18.63 141.509 18.978C141.293 19.326 141.005 19.5 140.645 19.5C140.417 19.5 140.231 19.446 140.087 19.338C139.955 19.23 139.889 19.08 139.889 18.888C139.889 18.804 139.901 18.708 139.925 18.6C139.949 18.492 139.967 18.414 139.979 18.366C140.039 18.186 140.069 18.018 140.069 17.862C140.069 17.706 140.027 17.586 139.943 17.502C139.871 17.418 139.763 17.376 139.619 17.376C139.343 17.376 139.085 17.502 138.845 17.754C138.605 17.994 138.413 18.324 138.269 18.744C138.125 19.164 138.053 19.626 138.053 20.13C138.053 21.522 138.659 22.218 139.871 22.218C140.363 22.218 140.891 22.056 141.455 21.732C142.031 21.396 142.595 20.898 143.147 20.238C143.291 20.07 143.453 19.986 143.633 19.986C143.789 19.986 143.909 20.058 143.993 20.202C144.089 20.346 144.137 20.544 144.137 20.796C144.137 21.252 144.023 21.624 143.795 21.912C143.231 22.608 142.553 23.148 141.761 23.532C140.981 23.904 140.225 24.09 139.493 24.09ZM150.437 19.986C150.593 19.986 150.713 20.058 150.797 20.202C150.893 20.346 150.941 20.544 150.941 20.796C150.941 21.276 150.827 21.648 150.599 21.912C150.083 22.548 149.519 23.07 148.907 23.478C148.295 23.886 147.593 24.09 146.801 24.09C144.353 24.09 143.129 22.368 143.129 18.924C143.129 18.396 143.147 17.862 143.183 17.322H142.481C142.121 17.322 141.875 17.256 141.743 17.124C141.623 16.992 141.563 16.782 141.563 16.494C141.563 15.822 141.833 15.486 142.373 15.486H143.399C143.603 14.166 143.915 12.96 144.335 11.868C144.755 10.776 145.259 9.906 145.847 9.258C146.447 8.61 147.089 8.286 147.773 8.286C148.277 8.286 148.673 8.508 148.961 8.952C149.249 9.396 149.393 9.954 149.393 10.626C149.393 12.486 148.613 14.106 147.053 15.486H149.069C149.261 15.486 149.399 15.528 149.483 15.612C149.567 15.696 149.609 15.852 149.609 16.08C149.609 16.908 148.931 17.322 147.575 17.322H145.379C145.355 17.922 145.343 18.39 145.343 18.726C145.343 19.974 145.487 20.85 145.775 21.354C146.075 21.858 146.543 22.11 147.179 22.11C147.695 22.11 148.151 21.954 148.547 21.642C148.943 21.33 149.411 20.862 149.951 20.238C150.095 20.07 150.257 19.986 150.437 19.986ZM147.287 10.014C147.107 10.014 146.903 10.242 146.675 10.698C146.459 11.142 146.249 11.766 146.045 12.57C145.853 13.362 145.691 14.244 145.559 15.216C146.267 14.604 146.795 13.92 147.143 13.164C147.503 12.396 147.683 11.7 147.683 11.076C147.683 10.368 147.551 10.014 147.287 10.014ZM152.464 24.486C151.84 24.486 151.36 24.342 151.024 24.054C150.7 23.766 150.538 23.442 150.538 23.082C150.538 22.77 150.652 22.5 150.88 22.272C151.108 22.044 151.444 21.93 151.888 21.93C152.044 21.93 152.224 21.948 152.428 21.984C152.644 22.008 152.806 22.026 152.914 22.038C152.902 21.726 152.83 21.432 152.698 21.156C152.578 20.88 152.422 20.616 152.23 20.364C152.038 20.1 151.858 19.872 151.69 19.68C151.318 20.388 150.946 20.976 150.574 21.444C150.214 21.912 149.818 22.356 149.386 22.776C149.17 22.992 148.942 23.1 148.702 23.1C148.51 23.1 148.354 23.034 148.234 22.902C148.114 22.758 148.054 22.584 148.054 22.38C148.054 22.14 148.138 21.918 148.306 21.714L148.54 21.426C149.2 20.61 149.698 19.938 150.034 19.41C150.25 19.062 150.466 18.648 150.682 18.168C150.91 17.688 151.204 17.034 151.564 16.206C151.792 15.678 152.266 15.414 152.986 15.414C153.322 15.414 153.556 15.444 153.688 15.504C153.82 15.564 153.886 15.66 153.886 15.792C153.886 15.864 153.862 15.978 153.814 16.134C153.766 16.29 153.7 16.446 153.616 16.602C153.4 17.034 153.292 17.4 153.292 17.7C153.292 17.88 153.352 18.078 153.472 18.294C153.604 18.51 153.802 18.78 154.066 19.104C154.45 19.608 154.738 20.04 154.93 20.4C155.134 20.748 155.236 21.132 155.236 21.552C155.236 22.056 155.116 22.536 154.876 22.992C154.648 23.436 154.324 23.796 153.904 24.072C153.484 24.348 153.004 24.486 152.464 24.486ZM158.765 19.788C158.549 19.788 158.375 19.728 158.243 19.608C158.111 19.476 158.051 19.266 158.063 18.978C158.111 18.222 158.291 17.55 158.603 16.962C158.915 16.374 159.437 15.714 160.169 14.982C160.853 14.31 161.345 13.74 161.645 13.272C161.945 12.804 162.095 12.318 162.095 11.814C162.095 10.986 161.633 10.572 160.709 10.572C160.157 10.572 159.737 10.698 159.449 10.95C159.161 11.19 159.017 11.496 159.017 11.868L159.035 12.606C159.035 12.81 158.957 12.99 158.801 13.146C158.657 13.29 158.423 13.362 158.099 13.362C157.727 13.362 157.439 13.254 157.235 13.038C157.043 12.81 156.947 12.492 156.947 12.084C156.947 11.484 157.091 10.938 157.379 10.446C157.679 9.942 158.129 9.54 158.729 9.24C159.329 8.94 160.067 8.79 160.943 8.79C162.131 8.79 163.049 9.048 163.697 9.564C164.357 10.068 164.687 10.8 164.687 11.76C164.687 12.516 164.495 13.2 164.111 13.812C163.727 14.424 163.151 15.06 162.383 15.72C161.735 16.272 161.243 16.722 160.907 17.07C160.571 17.418 160.325 17.724 160.169 17.988C160.025 18.24 159.905 18.534 159.809 18.87C159.725 19.182 159.587 19.416 159.395 19.572C159.215 19.716 159.005 19.788 158.765 19.788ZM158.081 24.09C157.553 24.09 157.151 23.946 156.875 23.658C156.611 23.37 156.479 22.992 156.479 22.524C156.479 21.984 156.629 21.552 156.929 21.228C157.241 20.904 157.673 20.742 158.225 20.742C158.753 20.742 159.149 20.874 159.413 21.138C159.689 21.39 159.827 21.768 159.827 22.272C159.827 22.824 159.671 23.268 159.359 23.604C159.047 23.928 158.621 24.09 158.081 24.09Z" fill="white"/>
<path d="M17.4205 39.0909H12.6136C12.5795 38.6932 12.4886 38.3324 12.3409 38.0085C12.1989 37.6847 12 37.4062 11.7443 37.1733C11.4943 36.9347 11.1903 36.7528 10.8324 36.6278C10.4744 36.4972 10.0682 36.4318 9.61364 36.4318C8.81818 36.4318 8.14489 36.625 7.59375 37.0114C7.0483 37.3977 6.63352 37.9517 6.34943 38.6733C6.07102 39.3949 5.93182 40.2614 5.93182 41.2727C5.93182 42.3409 6.07386 43.2358 6.35795 43.9574C6.64773 44.6733 7.06534 45.2131 7.6108 45.5767C8.15625 45.9347 8.8125 46.1136 9.57955 46.1136C10.017 46.1136 10.4091 46.0597 10.7557 45.9517C11.1023 45.8381 11.4034 45.6761 11.6591 45.4659C11.9148 45.2557 12.1222 45.0028 12.2812 44.7074C12.446 44.4062 12.5568 44.0682 12.6136 43.6932L17.4205 43.7273C17.3636 44.4659 17.1563 45.2187 16.7983 45.9858C16.4403 46.7472 15.9318 47.4517 15.2727 48.0994C14.6193 48.7415 13.8097 49.2585 12.8438 49.6506C11.8778 50.0426 10.7557 50.2386 9.47727 50.2386C7.875 50.2386 6.4375 49.8949 5.16477 49.2074C3.89773 48.5199 2.89489 47.5085 2.15625 46.1733C1.4233 44.8381 1.05682 43.2045 1.05682 41.2727C1.05682 39.3295 1.43182 37.6932 2.18182 36.3636C2.93182 35.0284 3.94318 34.0199 5.21591 33.3381C6.48864 32.6506 7.90909 32.3068 9.47727 32.3068C10.5795 32.3068 11.5938 32.4574 12.5199 32.7585C13.446 33.0597 14.2585 33.5 14.9574 34.0795C15.6563 34.6534 16.2188 35.3608 16.6449 36.2017C17.071 37.0426 17.3295 38.0057 17.4205 39.0909ZM19.1585 50V36.9091H23.7267V39.3977H23.863C24.1017 38.4773 24.4795 37.804 24.9966 37.3778C25.5193 36.9517 26.1301 36.7386 26.8289 36.7386C27.0335 36.7386 27.2352 36.7557 27.4341 36.7898C27.6386 36.8182 27.8346 36.8608 28.0221 36.9176V40.9318C27.7892 40.8523 27.5022 40.7926 27.1613 40.7528C26.8204 40.7131 26.5278 40.6932 26.2835 40.6932C25.8233 40.6932 25.4085 40.7983 25.0392 41.0085C24.6755 41.2131 24.3886 41.5028 24.1784 41.8778C23.9682 42.2472 23.863 42.6818 23.863 43.1818V50H19.1585ZM34.6075 50.2386C33.2097 50.2386 32.0052 49.9716 30.9938 49.4375C29.9882 48.8977 29.2126 48.125 28.6671 47.1193C28.1274 46.108 27.8575 44.8977 27.8575 43.4886C27.8575 42.1364 28.1302 40.9545 28.6757 39.9432C29.2211 38.9318 29.991 38.1449 30.9853 37.5824C31.9796 37.0199 33.1529 36.7386 34.5052 36.7386C35.4938 36.7386 36.3887 36.892 37.1899 37.1989C37.991 37.5057 38.6757 37.9517 39.2438 38.5369C39.812 39.1165 40.2495 39.821 40.5563 40.6506C40.8632 41.4801 41.0166 42.4148 41.0166 43.4545V44.5455H29.3234V41.9545H36.687C36.6813 41.5795 36.5847 41.25 36.3972 40.9659C36.2154 40.6761 35.9683 40.4517 35.6558 40.2926C35.349 40.1278 34.9995 40.0455 34.6075 40.0455C34.2268 40.0455 33.8774 40.1278 33.5592 40.2926C33.241 40.4517 32.9853 40.6733 32.7921 40.9574C32.6046 41.2415 32.5052 41.5739 32.4938 41.9545V44.75C32.4938 45.1705 32.5819 45.5455 32.758 45.875C32.9342 46.2045 33.187 46.4631 33.5166 46.6506C33.8461 46.8381 34.2438 46.9318 34.7097 46.9318C35.0336 46.9318 35.3291 46.8864 35.5961 46.7955C35.8688 46.7045 36.1018 46.5739 36.295 46.4034C36.4882 46.2273 36.6302 46.017 36.7211 45.7727H41.0166C40.8688 46.6818 40.5194 47.4716 39.9683 48.142C39.4171 48.8068 38.687 49.3239 37.7779 49.6932C36.8745 50.0568 35.8177 50.2386 34.6075 50.2386ZM46.104 50.2045C45.2688 50.2045 44.5302 50.0682 43.8881 49.7955C43.2518 49.517 42.7518 49.0966 42.3881 48.5341C42.0245 47.9716 41.8427 47.2557 41.8427 46.3864C41.8427 45.6705 41.9648 45.0597 42.2091 44.554C42.4535 44.0426 42.7944 43.625 43.2319 43.3011C43.6694 42.9773 44.1779 42.7301 44.7574 42.5597C45.3427 42.3892 45.9734 42.2784 46.6495 42.2273C47.3824 42.1705 47.9705 42.1023 48.4137 42.0227C48.8626 41.9375 49.1864 41.821 49.3853 41.6733C49.5841 41.5199 49.6836 41.3182 49.6836 41.0682V41.0341C49.6836 40.6932 49.5529 40.4318 49.2915 40.25C49.0302 40.0682 48.6949 39.9773 48.2859 39.9773C47.837 39.9773 47.4705 40.0767 47.1864 40.2756C46.908 40.4687 46.7404 40.767 46.6836 41.1705H42.354C42.4109 40.375 42.6637 39.642 43.1126 38.9716C43.5671 38.2955 44.229 37.7557 45.0984 37.3523C45.9677 36.9432 47.0529 36.7386 48.354 36.7386C49.2915 36.7386 50.1324 36.8494 50.8768 37.071C51.6211 37.2869 52.2546 37.5909 52.7773 37.983C53.3001 38.3693 53.6978 38.8239 53.9705 39.3466C54.2489 39.8636 54.3881 40.4261 54.3881 41.0341V50H49.9904V48.1591H49.8881C49.6268 48.6477 49.3086 49.0426 48.9336 49.3438C48.5643 49.6449 48.141 49.8636 47.6637 50C47.1921 50.1364 46.6722 50.2045 46.104 50.2045ZM47.6381 47.2386C47.9961 47.2386 48.3313 47.1648 48.6438 47.017C48.962 46.8693 49.2205 46.6562 49.4194 46.3778C49.6182 46.0994 49.7177 45.7614 49.7177 45.3636V44.2727C49.5927 44.3239 49.4591 44.3722 49.3171 44.4176C49.1807 44.4631 49.033 44.5057 48.8739 44.5455C48.7205 44.5852 48.5557 44.6222 48.3796 44.6562C48.2091 44.6903 48.0302 44.7216 47.8427 44.75C47.479 44.8068 47.1807 44.9006 46.9478 45.0312C46.7205 45.1562 46.5501 45.3125 46.4364 45.5C46.3285 45.6818 46.2745 45.8864 46.2745 46.1136C46.2745 46.4773 46.4023 46.7557 46.658 46.9489C46.9137 47.142 47.2404 47.2386 47.6381 47.2386ZM63.9628 36.9091V40.3182H55.3378V36.9091H63.9628ZM57.0083 33.7727H61.7128V45.7898C61.7128 45.9716 61.7441 46.125 61.8066 46.25C61.8691 46.3693 61.9657 46.4602 62.0963 46.5227C62.227 46.5795 62.3946 46.608 62.5992 46.608C62.7412 46.608 62.906 46.5909 63.0935 46.5568C63.2867 46.5227 63.4287 46.4943 63.5196 46.4716L64.2015 49.7784C63.9912 49.8409 63.6901 49.9176 63.298 50.0085C62.9117 50.0994 62.4515 50.1591 61.9174 50.1875C60.8378 50.2443 59.9316 50.1335 59.1986 49.8551C58.4657 49.571 57.9145 49.125 57.5452 48.517C57.1759 47.9091 56.9969 47.1477 57.0083 46.233V33.7727ZM71.5347 50.2386C70.1369 50.2386 68.9324 49.9716 67.921 49.4375C66.9153 48.8977 66.1398 48.125 65.5943 47.1193C65.0545 46.108 64.7847 44.8977 64.7847 43.4886C64.7847 42.1364 65.0574 40.9545 65.6028 39.9432C66.1483 38.9318 66.9182 38.1449 67.9125 37.5824C68.9068 37.0199 70.0801 36.7386 71.4324 36.7386C72.421 36.7386 73.3159 36.892 74.117 37.1989C74.9182 37.5057 75.6028 37.9517 76.171 38.5369C76.7392 39.1165 77.1767 39.821 77.4835 40.6506C77.7903 41.4801 77.9437 42.4148 77.9437 43.4545V44.5455H66.2506V41.9545H73.6142C73.6085 41.5795 73.5119 41.25 73.3244 40.9659C73.1426 40.6761 72.8955 40.4517 72.583 40.2926C72.2761 40.1278 71.9267 40.0455 71.5347 40.0455C71.154 40.0455 70.8045 40.1278 70.4864 40.2926C70.1682 40.4517 69.9125 40.6733 69.7193 40.9574C69.5318 41.2415 69.4324 41.5739 69.421 41.9545V44.75C69.421 45.1705 69.5091 45.5455 69.6852 45.875C69.8614 46.2045 70.1142 46.4631 70.4437 46.6506C70.7733 46.8381 71.171 46.9318 71.6369 46.9318C71.9608 46.9318 72.2562 46.8864 72.5233 46.7955C72.796 46.7045 73.029 46.5739 73.2222 46.4034C73.4153 46.2273 73.5574 46.017 73.6483 45.7727H77.9437C77.796 46.6818 77.4466 47.4716 76.8955 48.142C76.3443 48.8068 75.6142 49.3239 74.7051 49.6932C73.8017 50.0568 72.7449 50.2386 71.5347 50.2386ZM86.5484 54.9091C86.0086 54.9091 85.4944 54.8665 85.0058 54.7812C84.5171 54.7017 84.0882 54.5909 83.7188 54.4489L84.7416 51.108C85.1279 51.2443 85.4802 51.3324 85.7984 51.3722C86.1222 51.4119 86.3978 51.3892 86.6251 51.304C86.858 51.2188 87.0257 51.0568 87.1279 50.8182L87.2302 50.5795L82.6279 36.9091H87.537L89.6507 45.9773H89.787L91.9347 36.9091H96.8779L92.1052 51.0909C91.8666 51.8125 91.52 52.4602 91.0654 53.0341C90.6166 53.6136 90.0257 54.071 89.2927 54.4062C88.5597 54.7415 87.645 54.9091 86.5484 54.9091ZM103.644 50.2386C102.224 50.2386 101.008 49.9574 99.9967 49.3949C98.9853 48.8267 98.2097 48.0369 97.6699 47.0256C97.1302 46.0085 96.8603 44.8295 96.8603 43.4886C96.8603 42.1477 97.1302 40.9716 97.6699 39.9602C98.2097 38.9432 98.9853 38.1534 99.9967 37.5909C101.008 37.0227 102.224 36.7386 103.644 36.7386C105.065 36.7386 106.281 37.0227 107.292 37.5909C108.303 38.1534 109.079 38.9432 109.619 39.9602C110.159 40.9716 110.428 42.1477 110.428 43.4886C110.428 44.8295 110.159 46.0085 109.619 47.0256C109.079 48.0369 108.303 48.8267 107.292 49.3949C106.281 49.9574 105.065 50.2386 103.644 50.2386ZM103.678 46.7614C104.076 46.7614 104.42 46.6278 104.71 46.3608C104.999 46.0937 105.224 45.7131 105.383 45.2188C105.542 44.7244 105.622 44.1364 105.622 43.4545C105.622 42.767 105.542 42.179 105.383 41.6903C105.224 41.196 104.999 40.8153 104.71 40.5483C104.42 40.2812 104.076 40.1477 103.678 40.1477C103.258 40.1477 102.897 40.2812 102.596 40.5483C102.295 40.8153 102.065 41.196 101.906 41.6903C101.747 42.179 101.667 42.767 101.667 43.4545C101.667 44.1364 101.747 44.7244 101.906 45.2188C102.065 45.7131 102.295 46.0937 102.596 46.3608C102.897 46.6278 103.258 46.7614 103.678 46.7614ZM120.346 44.2727V36.9091H125.051V50H120.585V47.5114H120.448C120.164 48.3466 119.667 49 118.957 49.4716C118.247 49.9375 117.403 50.1705 116.426 50.1705C115.511 50.1705 114.71 49.9602 114.022 49.5398C113.341 49.1193 112.809 48.5398 112.429 47.8011C112.054 47.0625 111.863 46.2159 111.858 45.2614V36.9091H116.562V44.2727C116.568 44.9205 116.733 45.429 117.056 45.7983C117.386 46.1676 117.846 46.3523 118.437 46.3523C118.829 46.3523 119.167 46.2699 119.451 46.1051C119.741 45.9347 119.963 45.696 120.116 45.3892C120.275 45.0767 120.352 44.7045 120.346 44.2727ZM126.963 50V36.9091H131.532V39.3977H131.668C131.907 38.4773 132.285 37.804 132.802 37.3778C133.324 36.9517 133.935 36.7386 134.634 36.7386C134.838 36.7386 135.04 36.7557 135.239 36.7898C135.444 36.8182 135.64 36.8608 135.827 36.9176V40.9318C135.594 40.8523 135.307 40.7926 134.966 40.7528C134.625 40.7131 134.333 40.6932 134.088 40.6932C133.628 40.6932 133.213 40.7983 132.844 41.0085C132.481 41.2131 132.194 41.5028 131.983 41.8778C131.773 42.2472 131.668 42.6818 131.668 43.1818V50H126.963ZM153.157 41.1705H148.827C148.805 40.9034 148.711 40.6733 148.546 40.4801C148.381 40.2869 148.168 40.1392 147.907 40.0369C147.651 39.929 147.367 39.875 147.055 39.875C146.651 39.875 146.305 39.9489 146.015 40.0966C145.725 40.2443 145.583 40.4545 145.589 40.7273C145.583 40.9205 145.665 41.0994 145.836 41.2642C146.012 41.429 146.35 41.5568 146.85 41.6477L149.509 42.125C150.85 42.3693 151.847 42.7812 152.501 43.3608C153.16 43.9347 153.492 44.7045 153.498 45.6705C153.492 46.6023 153.214 47.4119 152.663 48.0994C152.117 48.7812 151.37 49.3097 150.421 49.6847C149.478 50.054 148.401 50.2386 147.191 50.2386C145.191 50.2386 143.626 49.8295 142.495 49.0114C141.37 48.1932 140.742 47.1136 140.611 45.7727H145.282C145.344 46.1875 145.549 46.5085 145.896 46.7358C146.248 46.9574 146.691 47.0682 147.225 47.0682C147.657 47.0682 148.012 46.9943 148.29 46.8466C148.575 46.6989 148.719 46.4886 148.725 46.2159C148.719 45.9659 148.594 45.767 148.35 45.6193C148.111 45.4716 147.736 45.3523 147.225 45.2614L144.907 44.8523C143.572 44.6193 142.572 44.1761 141.907 43.5227C141.242 42.8693 140.913 42.0284 140.918 41C140.913 40.0909 141.151 39.321 141.634 38.6903C142.123 38.054 142.819 37.571 143.722 37.2415C144.631 36.9062 145.708 36.7386 146.952 36.7386C148.844 36.7386 150.336 37.1307 151.427 37.9148C152.523 38.6989 153.1 39.7841 153.157 41.1705ZM159.525 42.6364V50H154.82V32.5455H159.354V39.3977H159.491C159.786 38.5625 160.278 37.9119 160.965 37.446C161.653 36.9744 162.479 36.7386 163.445 36.7386C164.372 36.7386 165.175 36.9489 165.857 37.3693C166.545 37.7898 167.076 38.3693 167.451 39.108C167.832 39.8466 168.019 40.6932 168.014 41.6477V50H163.309V42.6364C163.315 41.9886 163.153 41.4801 162.823 41.1108C162.499 40.7415 162.036 40.5568 161.434 40.5568C161.053 40.5568 160.718 40.642 160.428 40.8125C160.144 40.9773 159.923 41.2159 159.764 41.5284C159.61 41.8352 159.531 42.2045 159.525 42.6364ZM176.163 50.2386C174.742 50.2386 173.526 49.9574 172.515 49.3949C171.504 48.8267 170.728 48.0369 170.188 47.0256C169.649 46.0085 169.379 44.8295 169.379 43.4886C169.379 42.1477 169.649 40.9716 170.188 39.9602C170.728 38.9432 171.504 38.1534 172.515 37.5909C173.526 37.0227 174.742 36.7386 176.163 36.7386C177.583 36.7386 178.799 37.0227 179.811 37.5909C180.822 38.1534 181.597 38.9432 182.137 39.9602C182.677 40.9716 182.947 42.1477 182.947 43.4886C182.947 44.8295 182.677 46.0085 182.137 47.0256C181.597 48.0369 180.822 48.8267 179.811 49.3949C178.799 49.9574 177.583 50.2386 176.163 50.2386ZM176.197 46.7614C176.595 46.7614 176.938 46.6278 177.228 46.3608C177.518 46.0937 177.742 45.7131 177.901 45.2188C178.061 44.7244 178.14 44.1364 178.14 43.4545C178.14 42.767 178.061 42.179 177.901 41.6903C177.742 41.196 177.518 40.8153 177.228 40.5483C176.938 40.2812 176.595 40.1477 176.197 40.1477C175.776 40.1477 175.416 40.2812 175.115 40.5483C174.813 40.8153 174.583 41.196 174.424 41.6903C174.265 42.179 174.186 42.767 174.186 43.4545C174.186 44.1364 174.265 44.7244 174.424 45.2188C174.583 45.7131 174.813 46.0937 175.115 46.3608C175.416 46.6278 175.776 46.7614 176.197 46.7614ZM184.376 54.9091V36.9091H189.046V39.1932H189.149C189.319 38.75 189.569 38.3437 189.899 37.9744C190.228 37.5994 190.637 37.3011 191.126 37.0795C191.615 36.8523 192.183 36.7386 192.831 36.7386C193.694 36.7386 194.515 36.9688 195.294 37.429C196.078 37.8892 196.714 38.6136 197.203 39.6023C197.697 40.5909 197.944 41.875 197.944 43.4545C197.944 44.9659 197.708 46.2187 197.237 47.2131C196.771 48.2074 196.146 48.9489 195.362 49.4375C194.583 49.9261 193.728 50.1705 192.796 50.1705C192.183 50.1705 191.635 50.071 191.152 49.8722C190.674 49.6676 190.265 49.392 189.924 49.0455C189.589 48.6932 189.331 48.2955 189.149 47.8523H189.081V54.9091H184.376ZM188.978 43.4545C188.978 44.0909 189.061 44.642 189.225 45.108C189.396 45.5682 189.635 45.9261 189.941 46.1818C190.254 46.4318 190.626 46.5568 191.058 46.5568C191.49 46.5568 191.856 46.4347 192.157 46.1903C192.464 45.9403 192.697 45.5852 192.856 45.125C193.021 44.6591 193.103 44.1023 193.103 43.4545C193.103 42.8068 193.021 42.2528 192.856 41.7926C192.697 41.3267 192.464 40.9716 192.157 40.7273C191.856 40.4773 191.49 40.3523 191.058 40.3523C190.626 40.3523 190.254 40.4773 189.941 40.7273C189.635 40.9716 189.396 41.3267 189.225 41.7926C189.061 42.2528 188.978 42.8068 188.978 43.4545Z" fill="white"/>
</svg>
